<svg width="121" height="56" viewBox="0 0 121 56" fill="none" xmlns="http://www.w3.org/2000/svg">
<path d="M29.768 0.699466C30.776 0.651466 31.88 1.46747 31.736 2.52347C31.544 3.72347 30.296 4.20347 29.24 4.25147C26.6 4.39547 24.2 4.82747 21.752 5.88347C19.352 6.93947 17.336 8.42747 15.32 10.1075C14.744 10.5875 14.216 11.0675 13.736 11.5955C13.4 11.9795 12.152 13.0835 13.256 13.2755C13.832 13.3715 14.6 13.1315 15.128 13.0355C15.8 12.9875 16.52 12.8915 17.192 12.7955C19.544 12.5555 21.896 12.2675 24.296 12.1715C25.208 12.0755 26.024 11.9795 26.84 12.5075C27.656 12.9875 28.184 13.6115 28.424 14.5235C29.048 17.0195 27.224 19.4675 25.88 21.3395C22.952 25.3715 19.16 28.8275 14.936 31.4195C12.776 32.7155 10.52 33.8195 8.072 34.5875C5.96 35.2115 3.368 36.1715 1.16 35.6435C0.584 35.4995 0.44 34.8755 0.92 34.4915C1.976 33.7235 3.368 33.2915 4.568 32.8115C5.816 32.3315 7.016 31.7555 8.168 31.1315C10.616 29.8835 12.968 28.4435 15.128 26.7635C17.048 25.3235 18.776 23.6915 20.36 21.9155C21.272 20.9075 22.088 19.8995 22.856 18.8435C23.576 17.8355 24.344 16.8755 24.536 15.6275C24.584 15.2915 24.632 14.8595 24.488 14.5235C24.536 14.6195 24.152 14.2835 23.96 14.0915C23.96 14.1395 23.576 14.0435 23.384 14.0435C23 14.0435 22.616 14.0915 22.232 14.0915C19.4 14.3795 16.424 14.9555 13.592 14.8595C12.728 14.8595 11.72 14.6675 11.192 13.8995C10.616 13.0355 11.096 11.9795 11.576 11.1635C12.728 9.14747 14.264 7.46747 16.04 5.97947C19.832 2.90747 24.92 0.939468 29.768 0.699466ZM40.1698 14.1395C40.5058 11.7395 45.1138 12.3635 44.0098 14.6195C42.6178 17.5475 41.8978 20.9075 41.2258 24.1235C40.5538 27.2915 40.0738 30.5555 39.7378 33.7715C39.5938 35.4035 36.2818 35.5475 36.4738 33.7235C36.6658 32.1395 36.8578 30.6035 37.0978 29.0195C36.1858 29.8355 35.2258 30.6515 34.1698 31.3715C32.3938 32.6195 29.1298 33.8675 27.9778 31.1315C27.4977 30.0275 27.6898 28.8275 27.8818 27.7235C28.1698 26.2355 28.4578 24.7955 28.8418 23.3555C29.1777 21.9155 29.5618 20.4755 29.9938 19.0355C30.4258 17.5955 30.6658 16.0595 31.1458 14.6195C31.8658 12.6515 35.9938 13.2755 35.0338 15.5315C34.5538 16.6355 33.9297 17.5955 33.4978 18.6515C33.0658 19.7555 32.7298 20.8595 32.3938 21.9635C31.8178 24.0755 31.3378 26.2355 30.9538 28.3955C30.9058 28.7795 30.6178 30.0275 31.0498 30.2675C31.4338 30.5075 33.0178 29.3075 33.3538 29.0675C34.9858 28.0115 36.6658 26.6675 37.7698 25.0355C37.8658 24.6515 37.9138 24.2195 38.0098 23.8355C38.6338 20.5715 39.6418 17.4035 40.1698 14.1395ZM63.3654 13.7075C64.9014 13.7075 64.4694 15.5795 63.0774 15.6275C60.4374 15.6755 57.7974 15.7715 55.1574 16.1555C55.0614 16.1555 54.9654 16.1555 54.8694 16.1555C54.1974 19.0835 53.5254 21.9635 52.8054 24.8435C52.4694 26.3795 52.1334 27.9635 51.7974 29.4995C51.6534 30.2195 51.3654 31.0355 51.5094 31.7555C51.5574 31.8995 51.6054 32.1875 51.7014 32.2835C52.0374 32.5715 51.7494 32.4755 52.1814 32.2835C53.2854 31.7075 54.2934 30.4115 55.1094 29.4995C56.0214 28.4915 57.0294 27.4835 57.9414 26.4755C58.6614 25.6115 61.2054 25.9475 60.3894 27.3875C59.4774 28.9235 58.5654 30.2195 57.2694 31.5155C56.0694 32.6675 54.7734 34.0115 53.1894 34.6835C51.8454 35.2115 50.1654 35.1155 49.1574 33.8675C48.1014 32.5715 48.4374 30.9395 48.7734 29.4515C49.5414 25.6595 50.3094 21.8675 51.1254 18.0755C51.2214 17.6435 51.3174 17.2115 51.4134 16.7315C50.1174 17.0195 48.8214 17.3555 47.6214 17.8355C46.6134 18.2195 45.0294 18.0755 44.7414 16.7795C44.5014 15.5315 45.9894 14.7635 47.0454 14.7635C48.6294 14.7635 50.3094 14.6195 51.9414 14.4755C52.0854 13.8515 52.2294 13.1795 52.3734 12.5555C52.5654 11.6435 52.8054 10.7795 52.9974 9.86747C53.1894 8.85947 53.1894 7.80347 53.4294 6.74747C53.8134 4.68347 58.0374 4.77947 57.4614 6.84347C57.0294 8.42747 56.4054 9.91547 56.0214 11.4995C55.7814 12.4115 55.5894 13.2755 55.3494 14.1875C58.0374 13.9955 60.6774 13.8035 63.3654 13.7075ZM75.1899 16.0115C78.6459 18.6035 77.7819 24.5075 76.1499 27.8195C74.4219 31.2275 70.2939 34.8275 66.2139 33.1955C62.4219 31.7075 61.9419 26.5235 63.1899 23.1635C63.8619 21.3395 65.0619 19.7075 66.5499 18.4595C67.3659 17.7395 68.2779 17.2115 69.1899 16.7315C69.2379 16.6835 69.2379 16.6355 69.2859 16.6355C70.0539 15.7235 71.1579 15.2435 72.3099 15.1955C72.3579 15.1475 72.4539 15.0995 72.5019 15.0515C73.1739 14.7155 74.2779 14.9075 74.6139 15.6275C74.8059 15.7235 74.9979 15.8675 75.1899 16.0115ZM70.3899 30.4115C73.2699 28.4435 74.6139 24.3635 74.1339 21.0515C74.0379 20.1875 73.8459 19.3235 73.3659 18.6035C73.1259 18.2675 72.7899 17.8355 72.4539 17.5955C71.9739 17.7395 71.5419 17.9315 71.1099 18.1235C70.8699 18.6035 70.7259 19.2275 70.6299 19.6115C70.4379 20.7155 70.3899 21.8195 70.1979 22.9235C70.1019 23.5955 68.9499 23.8835 68.6139 23.2595C68.0859 22.2995 67.8459 21.4355 67.8939 20.4275C66.7419 21.6275 65.8779 23.0675 65.5419 24.7475C64.9659 27.6275 66.5979 33.0515 70.3899 30.4115ZM93.7284 13.6115C94.2084 14.7155 94.0164 16.0595 93.8724 17.2115C93.6324 18.7475 93.1044 20.2355 92.4804 21.6755C91.7124 23.4035 87.9684 22.8755 88.9284 20.8115C89.6004 19.2275 90.1284 17.5955 90.4164 15.9155C90.5124 15.4355 90.6084 14.9555 90.6084 14.4755C90.2724 14.7635 89.9364 15.0995 89.7444 15.3395C89.2164 15.8195 88.7844 16.2995 88.3524 16.8275C87.4404 17.8835 86.6244 19.0355 85.8564 20.2355C84.6084 22.2035 83.5044 24.2675 82.4004 26.2835C82.0644 28.7795 81.8244 31.3235 81.2484 33.7715C80.8164 35.6435 77.0244 35.8835 77.4084 33.7235C77.9364 30.2675 79.1364 26.9075 79.8564 23.4995C80.5764 20.0915 80.4804 16.6355 81.5844 13.3235C82.1124 11.7395 85.2804 11.9315 85.1364 13.7555C84.9444 16.1075 84.2244 18.3155 83.5524 20.5715C85.0404 18.0275 86.7684 15.6275 88.9764 13.6595C89.4084 13.2755 89.8404 12.8435 90.4164 12.6035C90.4644 12.5555 90.8004 12.4595 90.8964 12.4595C91.0404 12.3635 91.2324 12.3155 91.4244 12.2675C92.4324 12.1235 93.2964 12.7475 93.7284 13.6115ZM118.431 41.8355C119.199 41.7875 120.015 42.4115 119.919 43.1795C119.775 44.0435 118.815 44.5715 118.047 44.5235C113.247 44.2355 108.351 44.5235 103.551 44.9075C103.023 47.8355 102.543 50.7635 102.255 53.6915C102.063 55.1795 99.0871 55.1795 99.3751 53.6435C99.4711 52.9235 99.6151 52.2515 99.7591 51.5315C99.6631 49.4675 99.4231 47.2595 98.7031 45.3395C93.7111 45.8195 88.7191 46.5395 83.7271 47.3075C82.3351 47.4995 80.9431 46.4435 81.9031 45.0515C84.9271 40.6835 89.9671 35.4995 95.7751 38.2835C97.7911 39.2435 99.1831 40.7795 100.095 42.6035C100.287 42.5555 100.527 42.5555 100.767 42.5075C100.911 42.5075 101.103 42.5075 101.247 42.5075C101.823 39.3875 102.351 36.2675 103.023 33.1955C103.647 30.3635 104.223 27.5315 104.895 24.7475C104.799 24.8435 104.751 24.8915 104.703 24.9875C103.551 26.5235 102.399 27.9635 101.199 29.4035C100.095 30.6995 98.9911 32.2835 97.3111 32.7635C95.8711 33.1955 94.2391 32.6675 93.5671 31.2755C92.8951 29.8355 93.3751 28.0115 93.6151 26.4755C93.9031 24.6515 94.2391 22.7795 94.7191 20.9555C95.1511 19.0355 95.5831 17.0195 96.3991 15.1955C96.8311 14.3795 97.8871 13.9955 98.7511 14.0915C99.4231 14.1875 100.527 14.8115 100.239 15.7235C99.3271 18.7955 98.0311 21.6755 97.3111 24.8435C96.9751 26.2355 96.6391 27.6755 96.5431 29.1155C96.4951 29.4515 96.4471 30.1235 96.6391 30.4595C96.5911 30.3635 96.7831 30.3155 96.9751 30.1715C97.2151 29.9315 97.4551 29.6915 97.6471 29.4515C101.103 25.4675 104.223 21.1475 106.767 16.4915C107.007 15.3395 107.295 14.1875 107.535 13.0355C108.111 10.6835 112.527 11.0675 111.615 13.5635C111.471 13.8995 111.327 14.2835 111.183 14.6195C111.279 14.8595 111.231 15.0995 111.039 15.4355C110.943 15.6275 110.799 15.7715 110.703 15.9635C108.687 21.6755 107.103 27.4835 105.855 33.4355C105.231 36.4115 104.607 39.3395 104.031 42.3155C105.855 42.2195 107.727 42.1235 109.599 42.0275C112.527 41.9315 115.503 41.9795 118.431 41.8355ZM87.0391 43.8035C90.4471 43.3715 93.8551 43.0835 97.3111 42.7955C96.5911 41.9315 95.6791 41.2115 94.4791 40.7315C91.4551 39.4835 88.9591 41.4995 87.0391 43.8035Z" fill="white"/>
</svg>
